<svg id="Layer_1" data-name="Layer 1" xmlns="http://www.w3.org/2000/svg" viewBox="0 0 488.55 512.47"><defs><style>.cls-1{fill:#0eac69;}.cls-1,.cls-2,.cls-3,.cls-4,.cls-5,.cls-7,.cls-8{fill-rule:evenodd;}.cls-2{fill:#ffe23f;}.cls-3{fill:#5c85c4;}.cls-4{fill:#fff;}.cls-5{fill:#d3d3d3;}.cls-6{fill:#f0f0f0;}.cls-7{fill:#e24e3c;}.cls-8{fill:#893129;}</style></defs><title>google_maps</title><path class="cls-1" d="M3.69,471.57V107.49A38.35,38.35,0,0,1,42,69.15H406.1Z" transform="translate(-3.69 -5.08)"/><path class="cls-2" d="M3.69,479.21v-7.64L406.1,69.15h7.64a38.36,38.36,0,0,1,38.35,38.34v7.65L49.67,517.55H42A38.35,38.35,0,0,1,3.69,479.21Z" transform="translate(-3.69 -5.08)"/><polygon class="cls-3" points="45.98 512.47 224.2 334.26 402.41 512.47 45.98 512.47"/><path class="cls-4" d="M406.1,517.55L225.16,336.61l46-46L452.09,471.57v7.64a38.36,38.36,0,0,1-38.35,38.34H406.1Z" transform="translate(-3.69 -5.08)"/><polygon class="cls-5" points="448.4 466.49 270.18 288.27 448.4 110.06 448.4 466.49"/><path class="cls-6" d="M175.65,166H115.59v20.82h35.54a37.54,37.54,0,1,1-11-40.43l16.61-16.24a60.75,60.75,0,1,0,19.56,44.63A61.16,61.16,0,0,0,175.65,166Z" transform="translate(-3.69 -5.08)"/><path class="cls-7" d="M371.72,388.76h-0.19c-4,0-6.09-3-6.55-6.3-9.75-70.71-28.3-97.28-44.17-123.6-26.37-43.68-69.78-92-69.78-140C251,58.34,300.51,5.08,371.44,5.08h0.37c70.94,0,120.42,53.26,120.42,113.73,0,48-43.43,96.37-69.79,140.05-15.87,26.32-34.42,52.89-44.17,123.6C377.82,385.73,375.72,388.76,371.72,388.76Z" transform="translate(-3.69 -5.08)"/><path class="cls-8" d="M342.27,90.9a41.52,41.52,0,1,1,0,58.71A41.55,41.55,0,0,1,342.27,90.9Z" transform="translate(-3.69 -5.08)"/></svg>