<?xml version="1.0" encoding="UTF-8"?>
<svg width="24px" height="24px" viewBox="0 0 24 24" version="1.1" xmlns="http://www.w3.org/2000/svg" xmlns:xlink="http://www.w3.org/1999/xlink">
    <!-- Generator: sketchtool 52.6 (67491) - http://www.bohemiancoding.com/sketch -->
    <title>91ADC97E-E91C-4096-A7CD-B809CD473902</title>
    <desc>Created with sketchtool.</desc>
    <g id="Design-" stroke="none" stroke-width="1" fill="none" fill-rule="evenodd">
        <g id="3_3_Choose_carrier_Rate_My_Shipments_menu_light" transform="translate(-28.000000, -158.000000)" fill="#828895" fill-rule="nonzero">
            <g id="Group-9">
                <g id="Shipments" transform="translate(0.000000, 144.000000)">
                    <g id="icon" transform="translate(28.000000, 14.000000)">
                        <path d="M19.8216,-1.15463195e-14 L23.8216,6.4 L12.4,6.4 L12.4,-1.15463195e-14 L19.8216,-1.15463195e-14 Z M11.6,-1.15463195e-14 L11.6,6.4 L0.1784,6.4 L4.1784,-1.15463195e-14 L11.6,-1.15463195e-14 Z M0,7.2 L24,7.2 L24,24 L0,24 L0,7.2 Z M14.4,11.6 C15.0616,11.6 15.6,11.0616 15.6,10.4 C15.6,9.7384 15.0616,9.2 14.4,9.2 L9.6,9.2 C8.9384,9.2 8.4,9.7384 8.4,10.4 C8.4,11.0616 8.9384,11.6 9.6,11.6 L14.4,11.6 Z M9.0828,17.4828 L9.6,16.9656 L9.6,19.6 C9.6,19.8212 9.7792,20 10,20 C10.2208,20 10.4,19.8212 10.4,19.6 L10.4,16.9656 L10.9172,17.4828 C10.9952,17.5608 11.0976,17.6 11.2,17.6 C11.3024,17.6 11.4048,17.5608 11.4828,17.4828 C11.6392,17.3264 11.6392,17.0736 11.4828,16.9172 L10.2832,15.7176 C10.246,15.6804 10.202,15.6512 10.1528,15.6308 C10.0552,15.5904 9.9448,15.5904 9.8472,15.6308 C9.798,15.6512 9.7536,15.6804 9.7168,15.7176 L8.5172,16.9172 C8.3608,17.0736 8.3608,17.3264 8.5172,17.4828 C8.5952,17.5608 8.6976,17.6 8.8,17.6 C8.9024,17.6 9.0048,17.5608 9.0828,17.4828 Z M15.2,21.6 C15.4208,21.6 15.6,21.4212 15.6,21.2 C15.6,20.9788 15.4208,20.8 15.2,20.8 L8.8,20.8 C8.5792,20.8 8.4,20.9788 8.4,21.2 C8.4,21.4212 8.5792,21.6 8.8,21.6 L15.2,21.6 Z M15.4828,17.4828 C15.6392,17.3264 15.6392,17.0736 15.4828,16.9172 L14.2832,15.7176 C14.246,15.6804 14.202,15.6512 14.1528,15.6308 C14.0552,15.5904 13.9448,15.5904 13.8472,15.6308 C13.798,15.6512 13.7536,15.6804 13.7168,15.7176 L12.5172,16.9172 C12.3608,17.0736 12.3608,17.3264 12.5172,17.4828 C12.5952,17.5608 12.6976,17.6 12.8,17.6 C12.9024,17.6 13.0048,17.5608 13.0828,17.4828 L13.6,16.9656 L13.6,19.6 C13.6,19.8212 13.7792,20 14,20 C14.2208,20 14.4,19.8212 14.4,19.6 L14.4,16.9656 L14.9172,17.4828 C14.9952,17.5608 15.0976,17.6 15.2,17.6 C15.3024,17.6 15.4048,17.5608 15.4828,17.4828 Z" id="menu_shipments_default"></path>
                    </g>
                </g>
            </g>
        </g>
    </g>
</svg>